<svg width="322" height="318" viewBox="0 0 322 318" fill="none" xmlns="http://www.w3.org/2000/svg">
<path d="M50.0323 0L36.2688 12.043H21.6452V0M1 56.7742L13.043 70.5376V85.1613H1M58.6344 0L72.3979 12.043H87.0215V0M1 48.172L13.043 34.4086V19.7849H1M95.6237 0V12.043H119.71V0M1 93.7634H13.043V117.849H1M1 12.043H13.043V0M1 162.581L13.043 176.344V190.968H1M1 153.978L13.043 140.215V125.591H1M1 199.57H13.043V223.656H1M1 268.387L13.043 282.151V296.774H1M50.0323 317.419L36.2688 305.376H21.6452V317.419M1 259.785L13.043 246.021V231.398H1M58.6344 317.419L72.3979 305.376H87.0215V317.419M95.6237 317.419V305.376H119.71V317.419M13.043 317.419V305.376H1M156.699 0L142.935 12.043H128.312V0M165.301 0L179.065 12.043H193.688V0M202.29 0V12.043H226.376V0M263.366 0L249.602 12.043H234.979V0M321 56.7742L308.957 70.5376V85.1613H321M271.968 0L285.731 12.043H300.355V0M321 48.172L308.957 34.4086V19.7849H321M308.957 0V12.043H321M321 93.7634H308.957V117.849H321M156.699 317.419L142.935 305.376H128.312V317.419M165.301 317.419L179.065 305.376H193.688V317.419M202.29 317.419V305.376H226.376V317.419M321 162.581L308.957 176.344V190.968H321M321 153.978L308.957 140.215V125.591H321M321 199.57H308.957V223.656H321M321 268.387L308.957 282.151V296.774H321M263.366 317.419L249.602 305.376H234.979V317.419M321 259.785L308.957 246.021V231.398H321M271.968 317.419L285.731 305.376H300.355V317.419M321 305.376H308.957V317.419M21.6452 19.7849H40.5699L54.3333 6.0215L68.0968 19.7849H87.0215V38.7097L100.785 52.4731L87.0215 66.2366V85.1613H68.0968L54.3333 98.9247L40.5699 85.1613H21.6452V66.2366L7.88172 52.4731L21.6452 38.7097V19.7849ZM95.6237 93.7634H119.71V117.849H95.6237V93.7634ZM95.6237 85.1613V70.5376L107.667 56.7742L119.71 70.5376V85.1613H95.6237ZM21.6452 93.7634H36.2688L50.0323 105.806L36.2688 117.849H21.6452V93.7634ZM95.6237 34.4086V19.7849H119.71V34.4086L107.667 48.172L95.6237 34.4086ZM87.0215 93.7634H72.3979L58.6344 105.806L72.3979 117.849H87.0215V93.7634ZM21.6452 125.591H40.5699L54.3333 111.828L68.0968 125.591H87.0215V144.516L100.785 158.28L87.0215 172.043V190.968H68.0968L54.3333 204.731L40.5699 190.968H21.6452V172.043L7.88172 158.28L21.6452 144.516V125.591ZM95.6237 199.57H119.71V223.656H95.6237V199.57ZM95.6237 190.968V176.344L107.667 162.581L119.71 176.344V190.968H95.6237ZM21.6452 199.57H36.2688L50.0323 211.613L36.2688 223.656H21.6452V199.57ZM95.6237 140.215V125.591H119.71V140.215L107.667 153.978L95.6237 140.215ZM87.0215 199.57H72.3979L58.6344 211.613L72.3979 223.656H87.0215V199.57ZM21.6452 231.398H40.5699L54.3333 217.634L68.0968 231.398H87.0215V250.323L100.785 264.086L87.0215 277.849V296.774H68.0968L54.3333 310.538L40.5699 296.774H21.6452V277.849L7.88172 264.086L21.6452 250.323V231.398ZM95.6237 296.774V282.151L107.667 268.387L119.71 282.151V296.774H95.6237ZM95.6237 246.021V231.398H119.71V246.021L107.667 259.785L95.6237 246.021ZM128.312 19.7849H147.237L161 6.0215L174.763 19.7849H193.688V38.7097L207.452 52.4731L193.688 66.2366V85.1613H174.763L161 98.9247L147.237 85.1613H128.312V66.2366L114.548 52.4731L128.312 38.7097V19.7849ZM202.29 93.7634H226.376V117.849H202.29V93.7634ZM202.29 85.1613V70.5376L214.333 56.7742L226.376 70.5376V85.1613H202.29ZM128.312 93.7634H142.935L156.699 105.806L142.935 117.849H128.312V93.7634ZM202.29 34.4086V19.7849H226.376V34.4086L214.333 48.172L202.29 34.4086ZM193.688 93.7634H179.065L165.301 105.806L179.065 117.849H193.688V93.7634ZM234.979 19.7849H253.903L267.667 6.0215L281.43 19.7849H300.355V38.7097L314.118 52.4731L300.355 66.2366V85.1613H281.43L267.667 98.9247L253.903 85.1613H234.979V66.2366L221.215 52.4731L234.979 38.7097V19.7849ZM234.979 93.7634H249.602L263.366 105.806L249.602 117.849H234.979V93.7634ZM300.355 93.7634H285.731L271.968 105.806L285.731 117.849H300.355V93.7634ZM128.312 125.591H147.237L161 111.828L174.763 125.591H193.688V144.516L207.452 158.28L193.688 172.043V190.968H174.763L161 204.731L147.237 190.968H128.312V172.043L114.548 158.28L128.312 144.516V125.591ZM202.29 199.57H226.376V223.656H202.29V199.57ZM202.29 190.968V176.344L214.333 162.581L226.376 176.344V190.968H202.29ZM128.312 199.57H142.935L156.699 211.613L142.935 223.656H128.312V199.57ZM202.29 140.215V125.591H226.376V140.215L214.333 153.978L202.29 140.215ZM193.688 199.57H179.065L165.301 211.613L179.065 223.656H193.688V199.57ZM128.312 231.398H147.237L161 217.634L174.763 231.398H193.688V250.323L207.452 264.086L193.688 277.849V296.774H174.763L161 310.538L147.237 296.774H128.312V277.849L114.548 264.086L128.312 250.323V231.398ZM202.29 296.774V282.151L214.333 268.387L226.376 282.151V296.774H202.29ZM202.29 246.021V231.398H226.376V246.021L214.333 259.785L202.29 246.021ZM234.979 125.591H253.903L267.667 111.828L281.43 125.591H300.355V144.516L314.118 158.28L300.355 172.043V190.968H281.43L267.667 204.731L253.903 190.968H234.979V172.043L221.215 158.28L234.979 144.516V125.591ZM234.979 199.57H249.602L263.366 211.613L249.602 223.656H234.979V199.57ZM300.355 199.57H285.731L271.968 211.613L285.731 223.656H300.355V199.57ZM234.979 231.398H253.903L267.667 217.634L281.43 231.398H300.355V250.323L314.118 264.086L300.355 277.849V296.774H281.43L267.667 310.538L253.903 296.774H234.979V277.849L221.215 264.086L234.979 250.323V231.398Z" stroke="white" stroke-opacity="0.5" stroke-width="0.5" stroke-linecap="round" stroke-linejoin="round"/>
</svg>
